<svg xmlns="http://www.w3.org/2000/svg" xmlns:xlink="http://www.w3.org/1999/xlink" version="1.2" baseProfile="tiny" x="0px" y="0px" viewBox="0 0 100 100" xml:space="preserve"><path d="M92.2,18.1c-0.5-0.5-1.3-0.5-1.8,0c0,0-3.2,3.2-8.3,7.4c-0.5,0.4-0.6,1-0.3,1.6l1.2,2.3c0.1,0.2,0.3,0.4,0.6,0.6l2.5,1.1  l-1.7,5.9l-4.1-1.5c-0.3-0.1-0.7-0.1-1,0.1c-0.3,0.2-0.5,0.5-0.6,0.8L77.3,43l-1.5-2.1c-0.2-0.3-0.5-0.5-0.8-0.5  c-0.3-0.1-0.7,0-0.9,0.2l-3.8,2.8l0.3-2.5c0.1-0.5-0.1-0.9-0.5-1.2c-0.4-0.3-0.9-0.3-1.3-0.1l-3.9,2l0.5-1.2l0.7-0.7  c0.4-0.4,0.5-1.1,0.1-1.6s-1.1-0.6-1.6-0.3c-1.4,0.8-4,1.8-5,1.4c-0.1,0-0.2-0.1-0.2-0.2c-0.2-0.6-0.3-2-0.5-3.5  c-0.4-4.1-0.9-9.7-3.8-11.9c-1-0.8-2.3-1-3.7-0.8l-3.8-7.4c0,0,0,0,0.1-0.1c1.7-1.7,1.7-4.5,0-6.1s-4.5-1.7-6.1,0  c-1.7,1.7-1.7,4.5,0,6.1c0.8,0.8,2,1.3,3.1,1.3c0.3,0,0.5,0,0.8-0.1l3.6,7.1c-0.3,0.1-0.6,0.3-0.8,0.5l-5.2-3c0.3-1.4,0-3-1.1-4.1  c-1.7-1.7-4.5-1.7-6.1,0c-1.7,1.7-1.7,4.5,0,6.1c0.8,0.8,2,1.3,3.1,1.3c1.1,0,2.1-0.4,3-1.2l4.8,2.8c-1.2,2.3-1.1,5.5-0.9,8.2  c0.2,3,0.3,6-0.9,8.1c-5.3-4.4-10.8-6.6-16.5-6.5c-9.2,0.1-15.2,6.2-15.4,6.5c-7.2,7.2-7.2,19,0,26.2c2.4,2.4,5.6,3.8,9,3.9  c-3,5.7-4.3,10-3.8,12.8c0.1,0.5,0.4,0.8,0.9,1c0.1,0,0.2,0.1,0.4,0.1c0.3,0,0.6-0.1,0.9-0.4l0.3-0.3c-0.7,1.8-1.5,3.5-2.3,5  c-0.3,0.6-0.1,1.4,0.5,1.7c0.2,0.1,0.4,0.1,0.6,0.1c0.4,0,0.9-0.2,1.1-0.7c1.5-2.9,2.8-6,4.2-10.2c0,0,0-0.1,0-0.1L61,44.8  c0.1,0.2,0.2,0.4,0.3,0.6c0.4,0.4,1,0.4,1.4,0.2l5-2.6l-0.4,3c-0.1,0.5,0.2,1,0.6,1.2c0.4,0.3,1,0.2,1.4-0.1l5.1-3.7l2.4,3.4  c0.2,0.3,0.6,0.5,1,0.5c0.1,0,0.2,0,0.3,0c0.5-0.1,0.9-0.5,1-1l1.7-8l4,1.5c0.3,0.1,0.7,0.1,1-0.1c0.3-0.2,0.5-0.4,0.6-0.8l2.3-8.3  c0.2-0.6-0.1-1.2-0.7-1.5L85,27.8l-0.5-1c4.7-3.9,7.6-6.8,7.7-6.9C92.7,19.4,92.7,18.6,92.2,18.1z M31.8,68.4  c-0.2,0.2-0.6,0.4-0.9,0.4s-0.6-0.1-0.9-0.4c-0.5-0.5-0.5-1.3,0-1.8c2.7-2.7,3.8-6.6,2.9-10.3c-0.5-1.9-1.5-3.7-2.9-5.1  c-2.2-2.2-5.8-2.2-8,0c-2.2,2.2-2.2,5.8,0,8c0.5,0.5,0.5,1.3,0,1.8s-1.3,0.5-1.8,0c-3.2-3.2-3.2-8.4,0-11.5c3.2-3.2,8.4-3.2,11.5,0  c1.7,1.7,2.9,3.9,3.5,6.2C36.4,60.3,35.1,65,31.8,68.4z"></path></svg>